<?xml version="1.0" encoding="UTF-8"?>
<svg version="1.1" xmlns="http://www.w3.org/2000/svg" width="151" height="151">
<path d="M0 0 C3.71023247 1.24477496 6.77212149 0.79081863 10.625 0.3125 C16.60733673 -0.23570955 16.60733673 -0.23570955 20.5625 1.8125 C28.6588902 10.70883295 32.46906835 25.26975011 32.0625 37 C33.7021875 36.7525 33.7021875 36.7525 35.375 36.5 C48.52626705 34.89675366 60.01666486 36.22798783 70.9375 44.0625 C74.31758352 47.14434086 75.35592697 49.67425979 76.125 54.0625 C76.7403309 57.64787052 76.7403309 57.64787052 78.0625 61 C78.73324402 67.59564958 76.05114105 70.84586902 72.11328125 75.8828125 C66.01531252 82.59621085 57.17183979 87.12252647 49.0625 91 C50.0368269 93.47092813 51.02469786 95.91763549 52.1328125 98.33203125 C55.83112252 107.02990852 57.25505168 117.85046869 53.74609375 126.8671875 C51.87130857 130.35576688 50.32831419 131.08587962 46.84375 132.76171875 C43.33974206 135.19761901 41.89689756 139.26298349 40.0625 143 C39.7325 143.33 39.4025 143.66 39.0625 144 C32.84080979 143.67361625 28.57377167 142.14365431 23.25 139 C22.5600293 138.60498291 21.87005859 138.20996582 21.15917969 137.80297852 C15.70409671 134.59168199 10.98698961 130.91277395 6.296875 126.65234375 C3.98964155 124.60360756 3.98964155 124.60360756 0.0625 125 C-2.12096212 126.51738479 -2.12096212 126.51738479 -4.3125 128.5625 C-11.89268882 134.84578336 -21.72089227 141.11179902 -31.84375 141.5390625 C-35.36065318 140.63359116 -36.49098091 138.04899988 -38.296875 135.0703125 C-40.83123614 131.87219011 -43.95932352 131.06897906 -47.765625 129.88671875 C-49.9375 129 -49.9375 129 -51.9375 126 C-53.06688969 112.44732366 -48.65996525 100.01902896 -42.9375 88 C-43.8553125 87.443125 -44.773125 86.88625 -45.71875 86.3125 C-65.90379745 73.85707688 -65.90379745 73.85707688 -68.9375 62 C-68.87201789 58.07107334 -68.49139224 55.86407189 -66.375 52.5625 C-64.8367652 49.82042927 -64.83111751 49.01173782 -65 46 C-65.09138664 42.96710582 -64.94394278 42.01260543 -63.5 39.1875 C-56.54612876 33.25126845 -47.83297338 33.5865659 -39.125 33.75 C-37.44760742 33.75773437 -37.44760742 33.75773437 -35.73632812 33.765625 C-26.83622017 33.85104895 -26.83622017 33.85104895 -22.9375 35 C-22.80214844 34.07960937 -22.66679688 33.15921875 -22.52734375 32.2109375 C-20.49539313 20.26258117 -16.92953051 7.77157929 -6.9375 0 C-3.93061042 -1.05535928 -3.13528967 -1.06733265 0 0 Z " fill="#F2A5C5" transform="translate(70.9375,4)"/>
<path d="M0 0 C3.71023247 1.24477496 6.77212149 0.79081863 10.625 0.3125 C16.60733673 -0.23570955 16.60733673 -0.23570955 20.5625 1.8125 C28.6588902 10.70883295 32.46906835 25.26975011 32.0625 37 C33.7021875 36.7525 33.7021875 36.7525 35.375 36.5 C48.52626705 34.89675366 60.01666486 36.22798783 70.9375 44.0625 C74.31758352 47.14434086 75.35592697 49.67425979 76.125 54.0625 C76.7403309 57.64787052 76.7403309 57.64787052 78.0625 61 C78.73394058 67.60249905 76.05347432 70.8615893 72.0859375 75.88671875 C64.25559781 84.48940253 53.31184988 89.75013002 42.0625 92 C40.5465625 92.5878125 40.5465625 92.5878125 39 93.1875 C31.81621977 95.17450304 25.1818683 94.39230907 18.39453125 91.41015625 C13.39694986 88.38816817 10.25089643 83.78259465 7.0625 79 C6.9375 75.8125 6.9375 75.8125 7.0625 73 C6.2271875 73.05220703 6.2271875 73.05220703 5.375 73.10546875 C-1.19425624 73.3384998 -6.73712919 72.83442405 -11.81640625 68.3359375 C-13.71100442 66.28175114 -15.34953545 64.30522495 -16.9375 62 C-17.36691895 61.38527832 -17.79633789 60.77055664 -18.23876953 60.13720703 C-22.24840254 53.81153024 -22.64257432 48.49835414 -22.4375 41.125 C-22.44007812 40.11308594 -22.44265625 39.10117187 -22.4453125 38.05859375 C-22.28403436 25.46277083 -18.68240632 11.69888188 -9.8125 2.3125 C-6.16304825 -0.62292858 -4.47692011 -1.52405791 0 0 Z " fill="#ED82B1" transform="translate(70.9375,4)"/>
<path d="M0 0 C3.71023247 1.24477496 6.77212149 0.79081863 10.625 0.3125 C16.60733673 -0.23570955 16.60733673 -0.23570955 20.5625 1.8125 C28.6588902 10.70883295 32.46906835 25.26975011 32.0625 37 C33.7021875 36.7525 33.7021875 36.7525 35.375 36.5 C42.58341704 35.60374921 49.93758989 35.4594789 57.0625 37 C56.5675 37.99 56.5675 37.99 56.0625 39 C48.10744382 39.13258427 48.10744382 39.13258427 44.0625 38 C43.7325 38.33 43.4025 38.66 43.0625 39 C40.9785597 38.88556397 38.89533507 38.75804453 36.8125 38.625 C28.50876442 38.582634 22.64031632 40.98833043 16.0625 46 C11.48236919 50.91355029 9.12838521 56.68757297 7.0625 63 C5.0625 60 5.0625 60 4.3125 56.6875 C2.17922414 50.3943362 -2.22017433 47.13091644 -7.9375 44 C-9.25128684 43.14781394 -10.56367492 42.29346931 -11.875 41.4375 C-15.11920771 39.3937107 -18.2184083 38.02275022 -21.9375 37 C-22.60308585 25.24131663 -18.55389916 13.29438508 -11.35546875 3.9453125 C-7.71578927 0.09370232 -5.12022272 -1.74305454 0 0 Z " fill="#EF95B4" transform="translate(70.9375,4)"/>
<path d="M0 0 C0.33 0 0.66 0 1 0 C0.99097656 1.30453125 0.98195312 2.6090625 0.97265625 3.953125 C1.08995626 15.09555945 1.77321021 23.05329735 9 32 C9.56976563 32.55558594 10.13953125 33.11117187 10.7265625 33.68359375 C12 35 12 35 12 37 C10.741875 37.20625 9.48375 37.4125 8.1875 37.625 C-2.61492134 40.01416112 -11.2399007 46.50158945 -18 55 C-28.69889849 51.02887732 -39.36258717 43.85501244 -44.5625 33.4375 C-46.17165784 29.30068272 -46.24948735 26.33155615 -45 22 C-44.484375 21.195625 -43.96875 20.39125 -43.4375 19.5625 C-41.8992652 16.82042927 -41.89361751 16.01173782 -42.0625 13 C-42.15388664 9.96710582 -42.00644278 9.01260543 -40.5625 6.1875 C-33.60862876 0.25126845 -24.89547338 0.5865659 -16.1875 0.75 C-14.51010742 0.75773437 -14.51010742 0.75773437 -12.79882812 0.765625 C-3.89872017 0.85104895 -3.89872017 0.85104895 0 2 C0 1.34 0 0.68 0 0 Z " fill="#F7CADD" transform="translate(48,37)"/>
<path d="M0 0 C4 1.33333333 8 2.66666667 12 4 C17.79319096 4.42875596 22.52773943 4.03618998 28 2 C30.875 1.875 30.875 1.875 33 2 C33.33 1.34 33.66 0.68 34 0 C34.98127501 2.43077261 35.95478989 4.86357346 36.91015625 7.3046875 C37.53559623 8.85147454 38.19240629 10.38803276 38.93359375 11.8828125 C41.09296805 16.49085526 41.31303306 21.03055492 41.375 26.0625 C41.38885742 26.73555176 41.40271484 27.40860352 41.41699219 28.10205078 C41.36988454 33.16860178 40.37194326 36.6130031 38 41 C36.27952952 41.95581693 34.55493483 42.9086966 32.78125 43.76171875 C29.27724206 46.19761901 27.83439756 50.26298349 26 54 C25.67 54.33 25.34 54.66 25 55 C18.77959146 54.67368349 14.50950716 53.14536012 9.1875 50 C8.15471924 49.40421143 8.15471924 49.40421143 7.10107422 48.79638672 C0.05606583 44.62515125 -7.40812264 39.88781604 -12 33 C-11.52949219 32.35933594 -11.05898437 31.71867187 -10.57421875 31.05859375 C-3.99712524 21.92147213 -1 14.82775358 -1 3.5 C-1 1 -1 1 0 0 Z " fill="#F3AFCA" transform="translate(85,93)"/>
<path d="M0 0 C5.62050403 1.1628629 9.33988778 2.50491583 14 6 C14.65097656 6.46792969 15.30195312 6.93585937 15.97265625 7.41796875 C26.56630097 15.12063753 26.56630097 15.12063753 27.75 20.25 C27.87375 21.61125 27.87375 21.61125 28 23 C28.33 23.33 28.66 23.66 29 24 C29.21914062 23.35933594 29.43828125 22.71867187 29.6640625 22.05859375 C33.2172625 12.36673522 37.30025975 7.36856576 46.6328125 2.84765625 C49 2 49 2 53 2 C53.49145278 10.39110121 53.105573 19.64552475 47.5625 26.4375 C46.2940625 27.7059375 46.2940625 27.7059375 45 29 C44.236875 29.78375 43.47375 30.5675 42.6875 31.375 C42.130625 31.91125 41.57375 32.4475 41 33 C41.6290625 33.08636719 42.258125 33.17273438 42.90625 33.26171875 C53.51224076 35.00276241 58.86832733 39.28181623 65.53125 47.59765625 C67 50 67 50 67 54 C58.72858297 57.35651706 51.39945789 58.42737201 42.8125 55.5 C36.38657808 52.67664218 32.80004166 47.70006249 29 42 C28.875 38.8125 28.875 38.8125 29 36 C28.1646875 36.05220703 28.1646875 36.05220703 27.3125 36.10546875 C20.74324376 36.3384998 15.20037081 35.83442405 10.12109375 31.3359375 C8.25476381 29.31240051 6.6196395 27.22503873 5 25 C4.48953125 24.35289063 3.9790625 23.70578125 3.453125 23.0390625 C-1.3710912 15.96535223 -0.45239353 8.19334949 0 0 Z " fill="#EA659B" transform="translate(49,41)"/>
<path d="M0 0 C5.62050403 1.1628629 9.33988778 2.50491583 14 6 C14.65097656 6.46792969 15.30195312 6.93585937 15.97265625 7.41796875 C26.52213021 15.08852085 26.52213021 15.08852085 27.75 20 C27.87375 21.485 27.87375 21.485 28 23 C28.309375 24.175625 28.309375 24.175625 28.625 25.375 C29.1537171 29.0760197 28.56325199 32.30757028 28 36 C21.20844123 36.36383351 15.40987846 36.01371001 10.1171875 31.3359375 C8.25410756 29.31155194 6.61872962 27.22378875 5 25 C4.48953125 24.35289063 3.9790625 23.70578125 3.453125 23.0390625 C-1.3710912 15.96535223 -0.45239353 8.19334949 0 0 Z " fill="#EB749F" transform="translate(49,41)"/>
<path d="M0 0 C0.495 1.485 0.495 1.485 1 3 C-0.9914056 3.38133299 -2.99279077 3.71325582 -5 4 C-5.33 3.67 -5.66 3.34 -6 3 C-9.55628795 2.93953177 -13.09864721 2.97975225 -16.65429688 3.0390625 C-17.40388672 3.04679687 -18.15347656 3.05453125 -18.92578125 3.0625 C-19.95312378 3.07990234 -19.95312378 3.07990234 -21.0012207 3.09765625 C-23.11507842 2.99437751 -24.96849352 2.57742638 -27 2 C-27 2.66 -27 3.32 -27 4 C-29.31 3.67 -31.62 3.34 -34 3 C-34 2.67 -34 2.34 -34 2 C-30.33413956 1.15632009 -26.94213474 0.87144509 -23.18359375 0.8671875 C-22.08982422 0.86589844 -20.99605469 0.86460938 -19.86914062 0.86328125 C-18.17047852 0.86908203 -18.17047852 0.86908203 -16.4375 0.875 C-15.30119141 0.87113281 -14.16488281 0.86726563 -12.99414062 0.86328125 C-11.90166016 0.86457031 -10.80917969 0.86585937 -9.68359375 0.8671875 C-8.68900146 0.86831543 -7.69440918 0.86944336 -6.66967773 0.87060547 C-4.28551988 0.98616136 -2.27814041 1.31895877 0 2 C0 1.34 0 0.68 0 0 Z " fill="#FBD5E6" transform="translate(48,37)"/>
<path d="M0 0 C7.53403021 4.73567613 10.07165813 13.57027984 12.6171875 21.67578125 C13.06143017 24.37296891 12.679462 26.37057514 12 29 C11.67 29 11.34 29 11 29 C10.69707031 27.7934375 10.39414063 26.586875 10.08203125 25.34375 C6.79850502 12.05581332 6.79850502 12.05581332 -1 1 C-0.67 0.67 -0.34 0.34 0 0 Z " fill="#F7B1CA" transform="translate(89,5)"/>
<path d="M0 0 C0.33 0 0.66 0 1 0 C1 2.31 1 4.62 1 7 C2.093125 6.835 3.18625 6.67 4.3125 6.5 C11.52091704 5.60374921 18.87508989 5.4594789 26 7 C25.67 7.66 25.34 8.32 25 9 C17.04494382 9.13258427 17.04494382 9.13258427 13 8 C12.67 8.33 12.34 8.66 12 9 C10.35659133 9.09854655 8.7088539 9.12972411 7.0625 9.125 C6.16660156 9.12757812 5.27070312 9.13015625 4.34765625 9.1328125 C2 9 2 9 0 8 C0 5.36 0 2.72 0 0 Z " fill="#F4A4C5" transform="translate(102,34)"/>
<path d="M0 0 C-4.69514703 3.64113443 -8.23447232 5.64340525 -14 7 C-14.99 7.495 -14.99 7.495 -16 8 C-16.33 7.34 -16.66 6.68 -17 6 C-18.64363134 5.27840576 -20.31050386 4.60648579 -22 4 C-21.67 3.34 -21.34 2.68 -21 2 C-20.0925 2.185625 -19.185 2.37125 -18.25 2.5625 C-13.05010604 3.26248573 -8.87282659 1.27952856 -4.0234375 -0.4765625 C-2 -1 -2 -1 0 0 Z " fill="#F3B0CC" transform="translate(48,131)"/>
<path d="M0 0 C0.845625 0.78375 1.69125 1.5675 2.5625 2.375 C8.55733131 7.5489623 15.37707657 11.68700225 22 16 C21.67 16.66 21.34 17.32 21 18 C3.9478458 8.42176871 3.9478458 8.42176871 -1 1 C-0.67 0.67 -0.34 0.34 0 0 Z " fill="#F9C4DA" transform="translate(74,125)"/>
<path d="M0 0 C2.0625 0.4375 2.0625 0.4375 4 1 C2.60922699 1.82113177 1.21211107 2.63152495 -0.1875 3.4375 C-0.96480469 3.88996094 -1.74210937 4.34242187 -2.54296875 4.80859375 C-5.04931977 6.02391499 -7.25790365 6.57626575 -10 7 C-10 5.68 -10 4.36 -10 3 C-9.04287109 2.80083984 -9.04287109 2.80083984 -8.06640625 2.59765625 C-7.24011719 2.42105469 -6.41382812 2.24445313 -5.5625 2.0625 C-4.73878906 1.88847656 -3.91507812 1.71445313 -3.06640625 1.53515625 C-1.02338796 1.19247006 -1.02338796 1.19247006 0 0 Z " fill="#F08DB8" transform="translate(127,88)"/>
<path d="M0 0 C1.98 0.66 3.96 1.32 6 2 C6 2.66 6 3.32 6 4 C9.465 3.505 9.465 3.505 13 3 C13.33 3.66 13.66 4.32 14 5 C10.64463708 5.6467398 7.42229133 6.14483051 4 6 C1.375 3.625 1.375 3.625 0 1 C0 0.67 0 0.34 0 0 Z " fill="#FBDCEB" transform="translate(33,139)"/>
<path d="M0 0 C0.33 0 0.66 0 1 0 C1.22354724 2.37443423 1.429163 4.74825095 1.625 7.125 C1.68945312 7.79015625 1.75390625 8.4553125 1.8203125 9.140625 C2.16909098 13.58755057 1.68247185 16.87730181 0 21 C-0.66 20.34 -1.32 19.68 -2 19 C-1.73677914 17.32083245 -1.38585519 15.65529594 -1 14 C-0.78301513 11.56494763 -0.59709255 9.12698616 -0.4375 6.6875 C-0.35371094 5.43324219 -0.26992187 4.17898437 -0.18359375 2.88671875 C-0.12300781 1.93410156 -0.06242187 0.98148437 0 0 Z " fill="#FBC3DA" transform="translate(124,112)"/>
<path d="M0 0 C-2 2 -2 2 -5.9375 2.0625 C-6.97197266 2.01802734 -6.97197266 2.01802734 -8.02734375 1.97265625 C-10.21506135 1.90332679 -10.21506135 1.90332679 -13 3 C-11.56502242 -0.70702541 -11.56502242 -0.70702541 -9.3125 -1.875 C-5.95944221 -2.05624637 -3.16428534 -1.0344779 0 0 Z " fill="#F4A5C0" transform="translate(75,5)"/>
<path d="M0 0 C2.0331579 3.04973685 2.2548508 3.68956868 2.265625 7.125 C2.26820313 7.91390625 2.27078125 8.7028125 2.2734375 9.515625 C2.26570312 10.33546875 2.25796875 11.1553125 2.25 12 C2.25773438 12.81984375 2.26546875 13.6396875 2.2734375 14.484375 C2.27085937 15.27328125 2.26828125 16.0621875 2.265625 16.875 C2.26336914 17.59429687 2.26111328 18.31359375 2.25878906 19.0546875 C2 21 2 21 0 24 C0 16.08 0 8.16 0 0 Z " fill="#E790C6" transform="translate(126,107)"/>
<path d="M0 0 C8.25 0 16.5 0 25 0 C25 0.33 25 0.66 25 1 C16.75 1 8.5 1 0 1 C0 0.67 0 0.34 0 0 Z " fill="#FCCCF7" transform="translate(19,36)"/>
<path d="M0 0 C0.66 0 1.32 0 2 0 C1.67 2.31 1.34 4.62 1 7 C-0.65 7.33 -2.3 7.66 -4 8 C-3.40312566 4.65750371 -2.26396123 2.53563658 0 0 Z " fill="#F2AAC3" transform="translate(71,34)"/>
<path d="M0 0 C3.59648384 2.62446118 6.11692258 4.91999893 8 9 C7.67 9.99 7.34 10.98 7 12 C6.38511719 11.06027344 6.38511719 11.06027344 5.7578125 10.1015625 C5.21898438 9.28429688 4.68015625 8.46703125 4.125 7.625 C3.32449219 6.40683594 3.32449219 6.40683594 2.5078125 5.1640625 C1.04134945 2.92405904 1.04134945 2.92405904 -1 1 C-0.67 0.67 -0.34 0.34 0 0 Z " fill="#F6A5C2" transform="translate(89,5)"/>
<path d="M0 0 C0.66 0.33 1.32 0.66 2 1 C2.125 5.75 2.125 5.75 1 8 C1 9.32 1 10.64 1 12 C0.34 12 -0.32 12 -1 12 C-1.08159574 7.83861737 -0.98248524 4.0527516 0 0 Z " fill="#FAC1D9" transform="translate(21,109)"/>
<path d="M0 0 C4.455 0.99 4.455 0.99 9 2 C7.68 3.32 6.36 4.64 5 6 C4.67 5.34 4.34 4.68 4 4 C2.35636866 3.27840576 0.68949614 2.60648579 -1 2 C-0.67 1.34 -0.34 0.68 0 0 Z " fill="#F8BDD6" transform="translate(27,133)"/>
<path d="M0 0 C0 0.66 0 1.32 0 2 C-0.66 2 -1.32 2 -2 2 C-2.268125 2.61875 -2.53625 3.2375 -2.8125 3.875 C-4 6 -4 6 -7 8 C-6.1875 4.5625 -6.1875 4.5625 -5 1 C-2 0 -2 0 0 0 Z " fill="#F5BED5" transform="translate(48,95)"/>
<path d="M0 0 C2.33944736 0.28730055 4.6739143 0.61936779 7 1 C7 1.33 7 1.66 7 2 C2.03926578 3.32286246 -2.91111512 3.08893197 -8 3 C-8 2.67 -8 2.34 -8 2 C-6.865625 1.855625 -5.73125 1.71125 -4.5625 1.5625 C-1.19222799 1.38828522 -1.19222799 1.38828522 0 0 Z " fill="#ED80AF" transform="translate(105,95)"/>
<path d="M0 0 C0.66 0.33 1.32 0.66 2 1 C-2.455 4.465 -2.455 4.465 -7 8 C-7 7.01 -7 6.02 -7 5 C-5.46875 3.61328125 -5.46875 3.61328125 -3.5 2.3125 C-2.8503125 1.87550781 -2.200625 1.43851563 -1.53125 0.98828125 C-1.0259375 0.66214844 -0.520625 0.33601562 0 0 Z " fill="#F7B4D2" transform="translate(69,128)"/>
<path d="M0 0 C2.5625 2.25 2.5625 2.25 5 5 C4.8125 7.3125 4.8125 7.3125 4 9 C3.34 9 2.68 9 2 9 C2 7.35 2 5.7 2 4 C1.34 4 0.68 4 0 4 C0 2.68 0 1.36 0 0 Z " fill="#F09EC2" transform="translate(101,57)"/>
<path d="M0 0 C3.77545388 1.09068668 6.47043472 1.9083091 9 5 C5.30581799 5 3.22163822 3.71820705 0 2 C0 1.34 0 0.68 0 0 Z " fill="#F49AC0" transform="translate(131,43)"/>
<path d="M0 0 C2.6855594 2.6855594 3.06049974 5.37621328 4 9 C3.34 9 2.68 9 2 9 C-1.11450382 4.84732824 -1.11450382 4.84732824 -0.6875 1.6875 C-0.460625 1.130625 -0.23375 0.57375 0 0 Z " fill="#FABFD8" transform="translate(118,93)"/>
<path d="M0 0 C2.10814567 4.21629134 2.17700355 6.39790775 2 11 C3.65 11 5.3 11 7 11 C7 11.33 7 11.66 7 12 C5.02 12 3.04 12 1 12 C0.67 8.04 0.34 4.08 0 0 Z " fill="#EC79A4" transform="translate(103,28)"/>
<path d="M0 0 C2 1 2 1 2 1 Z M-3 3 C-1.68 3.66 -0.36 4.32 1 5 C-2 7 -2 7 -5 7 C-5 6.34 -5 5.68 -5 5 C-4.34 5 -3.68 5 -3 5 C-3 4.34 -3 3.68 -3 3 Z " fill="#F7C0D8" transform="translate(51,136)"/>
<path d="M0 0 C0.556875 0.226875 1.11375 0.45375 1.6875 0.6875 C-5.0625 4.6875 -5.0625 4.6875 -7.3125 4.6875 C-7.3125 4.0275 -7.3125 3.3675 -7.3125 2.6875 C-3.15982824 -0.42700382 -3.15982824 -0.42700382 0 0 Z " fill="#F49EC3" transform="translate(129.3125,88.3125)"/>
<path d="M0 0 C-0.33 0.66 -0.66 1.32 -1 2 C-3.32156597 2.40729228 -5.6568787 2.74438677 -8 3 C-8.33 2.34 -8.66 1.68 -9 1 C-6.04335481 -0.4783226 -3.25770263 -0.06032783 0 0 Z " fill="#F6A4C0" transform="translate(88,4)"/>
<path d="M0 0 C4.62 0 9.24 0 14 0 C14 0.33 14 0.66 14 1 C9.38 1 4.76 1 0 1 C0 0.67 0 0.34 0 0 Z " fill="#F5BFE3" transform="translate(110,38)"/>
<path d="M0 0 C0.33 0 0.66 0 1 0 C1 2.97 1 5.94 1 9 C0.67 9 0.34 9 0 9 C0 6.03 0 3.06 0 0 Z " fill="#E9BFC8" transform="translate(17,121)"/>
<path d="M0 0 C0.33 0 0.66 0 1 0 C1 2.64 1 5.28 1 8 C0.67 8 0.34 8 0 8 C0 5.36 0 2.72 0 0 Z " fill="#F088AF" transform="translate(147,53)"/>
<path d="M0 0 C0.33 0 0.66 0 1 0 C1 2.31 1 4.62 1 7 C0.67 7 0.34 7 0 7 C0 4.69 0 2.38 0 0 Z " fill="#CA92A2" transform="translate(18,114)"/>
<path d="M0 0 C0.66 0.66 1.32 1.32 2 2 C1.625 4.125 1.625 4.125 1 6 C0.67 4.02 0.34 2.04 0 0 Z " fill="#F28BB0" transform="translate(99,16)"/>
<path d="M0 0 C2.31 0 4.62 0 7 0 C7 0.33 7 0.66 7 1 C4.69 1 2.38 1 0 1 C0 0.67 0 0.34 0 0 Z " fill="#E991B6" transform="translate(81,2)"/>
<path d="M0 0 C1.98 0 3.96 0 6 0 C6 0.33 6 0.66 6 1 C4.02 1 2.04 1 0 1 C0 0.67 0 0.34 0 0 Z " fill="#DFD6D6" transform="translate(37,146)"/>
<path d="M0 0 C0.33 0 0.66 0 1 0 C1 1.98 1 3.96 1 6 C0.67 6 0.34 6 0 6 C0 4.02 0 2.04 0 0 Z " fill="#D88CB2" transform="translate(150,65)"/>
<path d="M0 0 C0.33 0 0.66 0 1 0 C1 1.98 1 3.96 1 6 C0.67 6 0.34 6 0 6 C0 4.02 0 2.04 0 0 Z " fill="#F0F0F0" transform="translate(4,46)"/>
<path d="M0 0 C1.65 0 3.3 0 5 0 C5 0.33 5 0.66 5 1 C3.35 1 1.7 1 0 1 C0 0.67 0 0.34 0 0 Z " fill="#F2A5BF" transform="translate(105,149)"/>
<path d="M0 0 C0.33 0 0.66 0 1 0 C1 1.65 1 3.3 1 5 C0.67 5 0.34 5 0 5 C0 3.35 0 1.7 0 0 Z " fill="#E8B3D7" transform="translate(19,109)"/>
<path d="M0 0 C0.33 0 0.66 0 1 0 C1 1.65 1 3.3 1 5 C0.67 5 0.34 5 0 5 C0 3.35 0 1.7 0 0 Z " fill="#FF99CC" transform="translate(48,28)"/>
<path d="M0 0 C0.99 0.33 1.98 0.66 3 1 C2.67 1.66 2.34 2.32 2 3 C1.34 2.01 0.68 1.02 0 0 Z " fill="#BF6672" transform="translate(91,5)"/>
<path d="M0 0 C4 1 4 1 4 1 Z " fill="#EFCFCF" transform="translate(43,145)"/>
<path d="M0 0 C0.99 0.33 1.98 0.66 3 1 C2.01 1 1.02 1 0 1 C0 0.67 0 0.34 0 0 Z " fill="#F25072" transform="translate(91,142)"/>
<path d="M0 0 C0.99 0 1.98 0 3 0 C2.67 0.66 2.34 1.32 2 2 C1.34 1.34 0.68 0.68 0 0 Z " fill="#FF6F84" transform="translate(28,137)"/>
<path d="M0 0 C0.99 0.33 1.98 0.66 3 1 C2.01 1 1.02 1 0 1 C0 0.67 0 0.34 0 0 Z " fill="#FF66B2" transform="translate(78,133)"/>
<path d="M0 0 C0.99 0.495 0.99 0.495 2 1 C1.34 1.66 0.68 2.32 0 3 C0 2.01 0 1.02 0 0 Z " fill="#FFB0C4" transform="translate(26,92)"/>
<path d="M0 0 C1 4 1 4 1 4 Z " fill="#FFFFFF" transform="translate(0,62)"/>
<path d="M0 0 C4 1 4 1 4 1 Z " fill="#F283B0" transform="translate(124,39)"/>
<path d="M0 0 C1 4 1 4 1 4 Z " fill="#EFBAC9" transform="translate(47,33)"/>
<path d="M0 0 C1 4 1 4 1 4 Z " fill="#EFA6B5" transform="translate(49,24)"/>
<path d="M0 0 C4 1 4 1 4 1 Z " fill="#E94AC4" transform="translate(75,4)"/>
<path d="M0 0 C4 1 4 1 4 1 Z " fill="#AF7F8F" transform="translate(64,2)"/>
<path d="M0 0 C3 1 3 1 3 1 Z " fill="#E27878" transform="translate(102,148)"/>
<path d="M0 0 C3 1 3 1 3 1 Z " fill="#EE8899" transform="translate(49,143)"/>
<path d="M0 0 C0.99 0.495 0.99 0.495 2 1 C1.01 1.495 1.01 1.495 0 2 C0 1.34 0 0.68 0 0 Z " fill="#EEDDDD" transform="translate(116,138)"/>
<path d="M0 0 C3 1 3 1 3 1 Z " fill="#FFA3E9" transform="translate(23,135)"/>
<path d="" fill="#FFA3E9" transform="translate(0,0)"/>
<path d="" fill="#E9BFD4" transform="translate(0,0)"/>
<path d="" fill="#AA6378" transform="translate(0,0)"/>
<path d="" fill="#E9557F" transform="translate(0,0)"/>
<path d="M0 0 C0.99 0.495 0.99 0.495 2 1 C1.01 1.495 1.01 1.495 0 2 C0 1.34 0 0.68 0 0 Z " fill="#FFC2E9" transform="translate(120,95)"/>
<path d="" fill="#FFE9FF" transform="translate(0,0)"/>
<path d="" fill="#E978CD" transform="translate(0,0)"/>
<path d="M0 0 C3 1 3 1 3 1 Z " fill="#FF2AE9" transform="translate(133,42)"/>
<path d="M0 0 C3 1 3 1 3 1 Z " fill="#FF7FBF" transform="translate(128,40)"/>
<path d="M0 0 C3 1 3 1 3 1 Z " fill="#FFE2FF" transform="translate(11,38)"/>
<path d="M0 0 C3 1 3 1 3 1 Z " fill="#FFD4D4" transform="translate(44,37)"/>
<path d="M0 0 C3 1 3 1 3 1 Z " fill="#FFBFBF" transform="translate(15,37)"/>
<path d="" fill="#FFCDCD" transform="translate(0,0)"/>
<path d="" fill="#FFCDCD" transform="translate(0,0)"/>
<path d="" fill="#FFAAC6" transform="translate(0,0)"/>
<path d="M0 0 C3 1 3 1 3 1 Z " fill="#FFAAAA" transform="translate(68,1)"/>
<path d="M0 0 C2 1 2 1 2 1 Z " fill="#FFB4B4" transform="translate(100,147)"/>
<path d="M0 0 C2 1 2 1 2 1 Z " fill="#FFB4B4" transform="translate(98,146)"/>
<path d="" fill="#FF8CA6" transform="translate(0,0)"/>
<path d="M0 0 C2 1 2 1 2 1 Z " fill="#FFDFDF" transform="translate(96,145)"/>
<path d="M0 0 C2 1 2 1 2 1 Z " fill="#FFDFFF" transform="translate(35,145)"/>
<path d="M0 0 C2 1 2 1 2 1 Z " fill="#FFE5E5" transform="translate(94,144)"/>
<path d="M0 0 C2 1 2 1 2 1 Z " fill="#E5A1E5" transform="translate(47,144)"/>
<path d="" fill="#FF9FDF" transform="translate(0,0)"/>
<path d="" fill="#FFDFDF" transform="translate(0,0)"/>
<path d="M0 0 C2 1 2 1 2 1 Z " fill="#FFCCE5" transform="translate(52,142)"/>
<path d="" fill="#FFCCE5" transform="translate(0,0)"/>
<path d="M0 0 C2 1 2 1 2 1 Z " fill="#FFDFDF" transform="translate(54,141)"/>
<path d="M0 0 C2 1 2 1 2 1 Z " fill="#DF9FDF" transform="translate(88,140)"/>
<path d="" fill="#FF66FF" transform="translate(0,0)"/>
<path d="M0 0 C2 1 2 1 2 1 Z " fill="#E58CE5" transform="translate(86,139)"/>
<path d="M0 0 C2 1 2 1 2 1 Z " fill="#FF8AB4" transform="translate(57,139)"/>
<path d="M0 0 C2 1 2 1 2 1 Z " fill="#FF95D4" transform="translate(59,138)"/>
<path d="M0 0 C2 1 2 1 2 1 Z " fill="#FFE5E5" transform="translate(118,137)"/>
<path d="M0 0 C2 1 2 1 2 1 Z " fill="#FFD4D4" transform="translate(83,137)"/>
<path d="M0 0 C2 1 2 1 2 1 Z " fill="#DF5F5F" transform="translate(120,136)"/>
<path d="M0 0 C2 1 2 1 2 1 Z " fill="#FF5595" transform="translate(62,136)"/>
<path d="M0 0 C2 1 2 1 2 1 Z " fill="#FFDFFF" transform="translate(26,136)"/>
<path d="M0 0 C2 1 2 1 2 1 Z " fill="#E5CCE5" transform="translate(65,134)"/>
<path d="M0 0 C2 1 2 1 2 1 Z " fill="#FFBFBF" transform="translate(21,134)"/>
<path d="" fill="#FFD4D4" transform="translate(0,0)"/>
<path d="" fill="#FFD4FF" transform="translate(0,0)"/>
<path d="M0 0 C2 1 2 1 2 1 Z " fill="#EAB4D4" transform="translate(72,128)"/>
<path d="" fill="#FF5F7F" transform="translate(0,0)"/>
<path d="" fill="#FF8CE5" transform="translate(0,0)"/>
<path d="" fill="#E5CCE5" transform="translate(0,0)"/>
<path d="" fill="#FFDFDF" transform="translate(0,0)"/>
<path d="" fill="#FF5595" transform="translate(0,0)"/>
<path d="M0 0 C2 1 2 1 2 1 Z " fill="#FF95B4" transform="translate(122,94)"/>
<path d="M0 0 C2 1 2 1 2 1 Z " fill="#FF5595" transform="translate(124,93)"/>
<path d="M0 0 C2 1 2 1 2 1 Z " fill="#FFBFDF" transform="translate(126,92)"/>
<path d="M0 0 C2 1 2 1 2 1 Z " fill="#FF73CC" transform="translate(129,90)"/>
<path d="M0 0 C2 1 2 1 2 1 Z " fill="#FFDFFF" transform="translate(21,89)"/>
<path d="M0 0 C2 1 2 1 2 1 Z " fill="#FF5595" transform="translate(132,88)"/>
<path d="M0 0 C2 1 2 1 2 1 Z " fill="#FFDFFF" transform="translate(19,88)"/>
<path d="M0 0 C2 1 2 1 2 1 Z " fill="#FF80DF" transform="translate(135,86)"/>
<path d="M0 0 C2 1 2 1 2 1 Z " fill="#EAD4EA" transform="translate(15,85)"/>
<path d="M0 0 C2 1 2 1 2 1 Z " fill="#FF40BF" transform="translate(138,84)"/>
<path d="" fill="#FFBFDF" transform="translate(0,0)"/>
<path d="" fill="#D45595" transform="translate(0,0)"/>
<path d="" fill="#FFB4B4" transform="translate(0,0)"/>
<path d="" fill="#FF40DF" transform="translate(0,0)"/>
<path d="" fill="#FFB4B4" transform="translate(0,0)"/>
<path d="" fill="#FFAAFF" transform="translate(0,0)"/>
<path d="" fill="#FF7FAA" transform="translate(0,0)"/>
<path d="" fill="#DF409F" transform="translate(0,0)"/>
<path d="" fill="#FFE5E5" transform="translate(0,0)"/>
<path d="" fill="#FFA6A6" transform="translate(0,0)"/>
<path d="" fill="#FFBFFF" transform="translate(0,0)"/>
<path d="" fill="#E5B2CC" transform="translate(0,0)"/>
<path d="M0 0 C2 1 2 1 2 1 Z " fill="#FF9FBF" transform="translate(141,47)"/>
<path d="" fill="#FFDFDF" transform="translate(0,0)"/>
<path d="M0 0 C2 1 2 1 2 1 Z " fill="#FF40DF" transform="translate(136,43)"/>
<path d="M0 0 C2 1 2 1 2 1 Z " fill="#FF95B4" transform="translate(131,41)"/>
<path d="" fill="#D495B4" transform="translate(0,0)"/>
<path d="" fill="#FF95B4" transform="translate(0,0)"/>
<path d="" fill="#FF409F" transform="translate(0,0)"/>
<path d="" fill="#D47FAA" transform="translate(0,0)"/>
<path d="" fill="#FF5595" transform="translate(0,0)"/>
<path d="" fill="#FF95D4" transform="translate(0,0)"/>
<path d="" fill="#FFB2CC" transform="translate(0,0)"/>
<path d="" fill="#FF9F9F" transform="translate(0,0)"/>
<path d="" fill="#FF6A95" transform="translate(0,0)"/>
<path d="M0 0 C2 1 2 1 2 1 Z " fill="#FF8080" transform="translate(61,4)"/>
<path d="M0 0 C2 1 2 1 2 1 Z " fill="#FF95BF" transform="translate(88,3)"/>
<path d="M0 0 C2 1 2 1 2 1 Z " fill="#FFB4B4" transform="translate(79,3)"/>
<path d="M0 0 C2 1 2 1 2 1 Z " fill="#E5CCCC" transform="translate(73,3)"/>
<path d="M0 0 C2 1 2 1 2 1 Z " fill="#FF55D4" transform="translate(71,2)"/>
<path d="" fill="#FFAAFF" transform="translate(0,0)"/>
<path d="" fill="#808080" transform="translate(0,0)"/>
<path d="" fill="#FFAAAA" transform="translate(0,0)"/>
<path d="" fill="#FFFFFF" transform="translate(0,0)"/>
<path d="" fill="#CC99CC" transform="translate(0,0)"/>
<path d="" fill="#FFBFBF" transform="translate(0,0)"/>
<path d="" fill="#FFBFBF" transform="translate(0,0)"/>
<path d="" fill="#CC99CC" transform="translate(0,0)"/>
<path d="" fill="#FF99CC" transform="translate(0,0)"/>
<path d="" fill="#FFFFFF" transform="translate(0,0)"/>
<path d="" fill="#FF8080" transform="translate(0,0)"/>
<path d="" fill="#FF99CC" transform="translate(0,0)"/>
<path d="" fill="#FF99CC" transform="translate(0,0)"/>
<path d="" fill="#FFAAAA" transform="translate(0,0)"/>
<path d="" fill="#FFCCCC" transform="translate(0,0)"/>
<path d="" fill="#FFFFFF" transform="translate(0,0)"/>
<path d="" fill="#FFFFFF" transform="translate(0,0)"/>
<path d="" fill="#FFBFBF" transform="translate(0,0)"/>
<path d="" fill="#CC99CC" transform="translate(0,0)"/>
<path d="" fill="#FFAAAA" transform="translate(0,0)"/>
<path d="" fill="#FFCCCC" transform="translate(0,0)"/>
<path d="" fill="#D5AAAA" transform="translate(0,0)"/>
<path d="" fill="#FFBFFF" transform="translate(0,0)"/>
<path d="" fill="#FFBFBF" transform="translate(0,0)"/>
<path d="" fill="#FFBFFF" transform="translate(0,0)"/>
<path d="" fill="#FFBFBF" transform="translate(0,0)"/>
<path d="" fill="#FFBFBF" transform="translate(0,0)"/>
<path d="" fill="#FF80BF" transform="translate(0,0)"/>
<path d="" fill="#FF80BF" transform="translate(0,0)"/>
<path d="" fill="#FFBFBF" transform="translate(0,0)"/>
<path d="" fill="#FFBFBF" transform="translate(0,0)"/>
<path d="" fill="#FF80BF" transform="translate(0,0)"/>
<path d="" fill="#CC9999" transform="translate(0,0)"/>
<path d="" fill="#FFAAAA" transform="translate(0,0)"/>
<path d="" fill="#FFCCCC" transform="translate(0,0)"/>
<path d="" fill="#FF99CC" transform="translate(0,0)"/>
<path d="" fill="#FFBFBF" transform="translate(0,0)"/>
<path d="" fill="#FFAAAA" transform="translate(0,0)"/>
<path d="" fill="#FFBFBF" transform="translate(0,0)"/>
<path d="" fill="#FFAAFF" transform="translate(0,0)"/>
<path d="" fill="#FFCCCC" transform="translate(0,0)"/>
<path d="" fill="#FFAAFF" transform="translate(0,0)"/>
<path d="" fill="#FFCCFF" transform="translate(0,0)"/>
<path d="" fill="#FFFFFF" transform="translate(0,0)"/>
<path d="" fill="#FFCCCC" transform="translate(0,0)"/>
<path d="" fill="#FFCCCC" transform="translate(0,0)"/>
<path d="" fill="#FFCCCC" transform="translate(0,0)"/>
<path d="" fill="#CC9999" transform="translate(0,0)"/>
<path d="" fill="#FFAAD5" transform="translate(0,0)"/>
<path d="" fill="#FFBFFF" transform="translate(0,0)"/>
<path d="" fill="#FFFFFF" transform="translate(0,0)"/>
<path d="" fill="#D580AA" transform="translate(0,0)"/>
<path d="" fill="#FFFFFF" transform="translate(0,0)"/>
<path d="" fill="#FFBFBF" transform="translate(0,0)"/>
<path d="" fill="#FFAAAA" transform="translate(0,0)"/>
<path d="" fill="#FFAAAA" transform="translate(0,0)"/>
<path d="" fill="#FFAAAA" transform="translate(0,0)"/>
<path d="" fill="#FF80AA" transform="translate(0,0)"/>
<path d="" fill="#BF80BF" transform="translate(0,0)"/>
<path d="" fill="#FFFFFF" transform="translate(0,0)"/>
<path d="" fill="#FFBFFF" transform="translate(0,0)"/>
<path d="" fill="#FFAAFF" transform="translate(0,0)"/>
<path d="" fill="#FFAAAA" transform="translate(0,0)"/>
<path d="" fill="#FFBFFF" transform="translate(0,0)"/>
<path d="" fill="#BFBFBF" transform="translate(0,0)"/>
<path d="" fill="#FF99CC" transform="translate(0,0)"/>
<path d="" fill="#FF80BF" transform="translate(0,0)"/>
<path d="" fill="#FF6699" transform="translate(0,0)"/>
<path d="" fill="#FF8080" transform="translate(0,0)"/>
<path d="" fill="#FFFFFF" transform="translate(0,0)"/>
<path d="" fill="#FFFFFF" transform="translate(0,0)"/>
<path d="" fill="#BF80BF" transform="translate(0,0)"/>
<path d="" fill="#FFBFBF" transform="translate(0,0)"/>
</svg>
